<?xml version="1.0" encoding="iso-8859-1"?>
<!-- Uploaded to: SVG Repo, www.svgrepo.com, Generator: SVG Repo Mixer Tools -->
<svg fill="#000000" height="800px" width="800px" version="1.1" id="Layer_1" xmlns="http://www.w3.org/2000/svg" xmlns:xlink="http://www.w3.org/1999/xlink" 
	 viewBox="0 0 512 512" xml:space="preserve">
<g>
	<g>
		<path d="M244.829,452.125h-75.725c-4.686,0-8.486,3.799-8.486,8.486c0,4.686,3.799,8.486,8.486,8.486h75.725
			c4.686,0,8.486-3.799,8.486-8.486C253.315,455.924,249.516,452.125,244.829,452.125z"/>
	</g>
</g>
<g>
	<g>
		<path d="M244.829,300.412H93.379c-4.686,0-8.486,3.799-8.486,8.486c0,4.686,3.799,8.486,8.486,8.486h151.45
			c4.686,0,8.486-3.799,8.486-8.486C253.315,304.212,249.516,300.412,244.829,300.412z"/>
	</g>
</g>
<g>
	<g>
		<path d="M244.829,339.672H93.379c-4.686,0-8.486,3.799-8.486,8.486c0,4.686,3.799,8.486,8.486,8.486h151.45
			c4.686,0,8.486-3.799,8.486-8.486C253.315,343.471,249.516,339.672,244.829,339.672z"/>
	</g>
</g>
<g>
	<g>
		<path d="M244.829,378.932H93.379c-4.686,0-8.486,3.799-8.486,8.486s3.799,8.486,8.486,8.486h151.45
			c4.686,0,8.486-3.799,8.486-8.486S249.516,378.932,244.829,378.932z"/>
	</g>
</g>
<g>
	<g>
		<path d="M475.471,176.487c-4.686,0-8.486,3.799-8.486,8.486v185.92h-38.065c-4.686,0-8.486,3.799-8.486,8.486
			c0,4.686,3.799,8.486,8.486,8.486h46.55c4.686,0,8.486-3.799,8.486-8.486V184.973
			C483.957,180.287,480.158,176.487,475.471,176.487z"/>
	</g>
</g>
<g>
	<g>
		<path d="M483.957,106.775V62.73c0-2.25-0.894-4.409-2.486-6L427.227,2.486C425.635,0.894,423.477,0,421.226,0H210.318
			c-4.686,0-8.486,3.799-8.486,8.486v115.65h-85.565c-4.686,0-8.486,3.799-8.486,8.486s3.799,8.486,8.486,8.486h63.225v89.803
			c0,4.686,3.798,8.486,8.486,8.486h105.217v255.633H45.014V141.107h37.311c4.686,0,8.486-3.799,8.486-8.486
			s-3.799-8.486-8.486-8.486H36.529c-4.686,0-8.486,3.799-8.486,8.486v370.893c0,4.686,3.799,8.486,8.486,8.486h265.153
			c4.686,0,8.486-3.799,8.486-8.486v-115.65h84.812c4.686,0,8.486-3.799,8.486-8.486c0-4.686-3.799-8.486-8.486-8.486h-84.812
			V230.91v-44.044c0-2.25-0.894-4.409-2.486-6l-54.244-54.244c-1.591-1.592-3.75-2.486-6-2.486h-28.633V16.971h134.479v89.803
			c0,4.686,3.799,8.486,8.486,8.486h105.217v35.77c0,4.686,3.799,8.486,8.486,8.486c4.686,0,8.486-3.799,8.486-8.486
			L483.957,106.775L483.957,106.775z M243.922,141.107l49.274,49.274v32.044h-96.731v-81.318h13.854H243.922z M466.986,98.289
			h-96.731V16.971h47.458l49.273,49.273V98.289z"/>
	</g>
</g>
</svg>